<?xml version="1.0" encoding="iso-8859-1"?>
<!-- Generator: Adobe Illustrator 19.0.0, SVG Export Plug-In . SVG Version: 6.00 Build 0)  -->
<svg version="1.1" id="Layer_1" xmlns="http://www.w3.org/2000/svg" xmlns:xlink="http://www.w3.org/1999/xlink" x="0px" y="0px"
	 viewBox="0 0 512 512" style="enable-background:new 0 0 512 512;" xml:space="preserve">
<rect x="128.816" y="10.199" style="fill:#EAE8E8;" width="317.634" height="491.602"/>
<path style="fill:#FFBA7A;" d="M104.434,501.801h24.382V10.199h-24.382c-21.472,0-38.88,17.407-38.88,38.88v413.842
	C65.553,484.394,82.961,501.801,104.434,501.801z"/>
<g>
	<path style="fill:#ADDE52;" d="M287.087,290.03h-29.59c-44.2,0-80.031-35.831-80.031-80.031v-29.59h29.59
		c44.2,0,80.031,35.831,80.031,80.031V290.03z"/>
	<path style="fill:#ADDE52;" d="M287.087,290.03h29.59c44.2,0,80.031-35.831,80.031-80.031v-29.59h-29.59
		c-44.2,0-80.031,35.831-80.031,80.031L287.087,290.03L287.087,290.03z"/>
</g>
<g>
	<path style="fill:#5E282D;" d="M446.447,512c5.632,0,10.199-4.567,10.199-10.199V10.199C456.646,4.567,452.079,0,446.447,0H104.434
		c-27.063,0-49.08,22.017-49.08,49.08V462.92c0,27.063,22.017,49.08,49.08,49.08H446.447z M75.753,462.92V49.08
		c0-15.815,12.866-28.681,28.681-28.681h14.183v471.203h-14.183C88.619,491.602,75.753,478.735,75.753,462.92z M436.247,491.602
		H139.015V20.398h297.231v471.203H436.247z"/>
	<path style="fill:#5E282D;" d="M257.498,300.229h19.391v43.264c0,5.632,4.567,10.199,10.199,10.199
		c5.632,0,10.199-4.567,10.199-10.199v-43.264h19.391c49.754,0,90.231-40.478,90.231-90.231v-29.59
		c0-5.632-4.567-10.199-10.199-10.199h-29.591c-34.744,0-64.96,19.743-80.031,48.595c-15.071-28.853-45.288-48.595-80.032-48.595
		h-29.59c-5.633,0-10.199,4.567-10.199,10.199v29.59C167.267,259.752,207.745,300.229,257.498,300.229z M367.118,190.608h19.392
		v19.391c0,38.506-31.327,69.833-69.833,69.833h-4.967l29.526-29.526c3.983-3.983,3.983-10.441,0-14.425
		c-3.984-3.982-10.44-3.982-14.425,0l-29.525,29.525v-4.966C297.286,221.935,328.613,190.608,367.118,190.608z M187.665,190.608
		h19.391c38.506,0,69.833,31.327,69.833,69.832v4.966l-57.656-57.655c-3.983-3.982-10.441-3.982-14.424,0
		c-3.983,3.983-3.983,10.441,0,14.425l57.656,57.655h-4.967c-38.506,0-69.833-31.327-69.833-69.833V190.608z"/>
	<path style="fill:#5E282D;" d="M356.959,230.839c2.611,0,5.22-0.996,7.212-2.987l3.007-3.007c3.983-3.983,3.983-10.441,0-14.425
		c-3.984-3.982-10.44-3.982-14.425,0l-3.007,3.007c-3.983,3.983-3.983,10.441,0,14.425
		C351.739,229.843,354.349,230.839,356.959,230.839z"/>
</g>
<g>
</g>
<g>
</g>
<g>
</g>
<g>
</g>
<g>
</g>
<g>
</g>
<g>
</g>
<g>
</g>
<g>
</g>
<g>
</g>
<g>
</g>
<g>
</g>
<g>
</g>
<g>
</g>
<g>
</g>
</svg>
